<svg width="19" height="17" viewBox="0 0 19 17" fill="none" xmlns="http://www.w3.org/2000/svg">
<path d="M7.49999 16.2036C6.96956 16.2036 6.46085 15.9929 6.08578 15.6178C5.71071 15.2428 5.49999 14.734 5.49999 14.2036C5.49999 13.6732 5.71071 13.1645 6.08578 12.7894C6.46085 12.4143 6.96956 12.2036 7.49999 12.2036C8.03043 12.2036 8.53913 12.4143 8.91421 12.7894C9.28928 13.1645 9.49999 13.6732 9.49999 14.2036C9.49999 14.734 9.28928 15.2428 8.91421 15.6178C8.53913 15.9929 8.03043 16.2036 7.49999 16.2036ZM14.5 16.2036C13.9696 16.2036 13.4609 15.9929 13.0858 15.6178C12.7107 15.2428 12.5 14.734 12.5 14.2036C12.5 13.6732 12.7107 13.1645 13.0858 12.7894C13.4609 12.4143 13.9696 12.2036 14.5 12.2036C15.0304 12.2036 15.5391 12.4143 15.9142 12.7894C16.2893 13.1645 16.5 13.6732 16.5 14.2036C16.5 14.734 16.2893 15.2428 15.9142 15.6178C15.5391 15.9929 15.0304 16.2036 14.5 16.2036ZM1.46199 2.12661C1.21236 2.11856 0.975635 2.01373 0.801892 1.8343C0.628149 1.65486 0.531006 1.41488 0.531006 1.16511C0.531006 0.915345 0.628149 0.675368 0.801892 0.495931C0.975635 0.316494 1.21236 0.211665 1.46199 0.203613L2.61299 0.203613C3.51499 0.203613 4.29499 0.829613 4.49099 1.70961L5.74399 7.35161C5.93999 8.23161 6.71999 8.85761 7.62199 8.85761H15.134L16.576 3.08761H7.23099C6.9837 3.07633 6.75028 2.97015 6.57928 2.79117C6.40827 2.61218 6.31285 2.37416 6.31285 2.12661C6.31285 1.87907 6.40827 1.64105 6.57928 1.46206C6.75028 1.28307 6.9837 1.1769 7.23099 1.16561H16.576C16.8683 1.16553 17.1568 1.23209 17.4196 1.36025C17.6823 1.4884 17.9124 1.67478 18.0923 1.9052C18.2722 2.13562 18.3972 2.40402 18.4578 2.69001C18.5184 2.97599 18.513 3.27203 18.442 3.55561L17 9.32361C16.896 9.73981 16.6559 10.1093 16.3178 10.3733C15.9797 10.6373 15.563 10.7807 15.134 10.7806H7.62199C6.74679 10.7807 5.89772 10.4823 5.21501 9.93471C4.5323 9.38709 4.05678 8.62299 3.86699 7.76861L2.61299 2.12661H1.46199Z" fill="white"/>
</svg>
